<svg xmlns="http://www.w3.org/2000/svg" version="1.1" viewBox="0 0 726 450" fill="none"  width="69">

<path d="M701.6 314.4L708.3 304.7H686.1L679.7 314.4H643.3V445.7H725.1V429H660.5V374.4H725.4V357.7H660.5V331.1H725.4V314.4H701.6Z" fill="#E83182"></path><path d="M526.4 331.1H569.7V445.7H587.3V331.1H631.6V314.4H526.4V331.1Z" fill="#E83182"></path><path d="M470 311C439.4 311 413.5 337.5 413.5 368.8V445.7H430.7V368.8C430.7 345.9 447.9 328 469.9 328C492.1 328 508.1 345.8 508.1 370.3V445.7H525.5V370.3C525.7 337.6 500.7 311 470 311Z" fill="#E83182"></path><path d="M337.3 311C306.7 311 280.8 337.5 280.8 368.8V445.7H298V396H375.5V445.7H392.9V370.3C392.9 337.6 367.9 311 337.3 311ZM375.5 379.4H298V368.8C298 345.9 315.2 328 337.2 328C359.4 328 375.4 345.8 375.4 370.3V379.4H375.5Z" fill="#E83182"></path><path d="M263.3 405.8C263.3 386.6 252.5 372.4 231.2 363.7C207.2 353.5 205.2 349.9 205.2 341.7C205.2 335.8 207.6 328.7 219.3 328.7C228.7 328.7 232.8 332.3 234.3 342.1L235 346.9L251.8 343.8L251 339.2C247.9 321.7 236.4 311.6 219.5 311.6C201.1 311.6 188.2 324.5 188.2 343C188.2 351.8 191.5 359.9 197.4 365.8C202.3 370.6 207.3 373.5 219.4 379.1C230.1 383.8 234.8 386.5 238.8 390.2C243.6 395.1 246 400.7 246 407.4C246 421.7 234.8 432.4 219.9 432.4C205.3 432.4 194.3 423 194.3 410.6V396.3H177.4V410.7C177.4 431.8 196.7 449.6 219.5 449.6C243.7 449.6 263.3 430 263.3 405.8Z" fill="#E83182"></path><path d="M686 272.1H621.4V217.4H686.4V200.7H621.4V174.1H686V157.4H604.2V288.8H686V272.1Z" fill="#E83182"></path><path d="M575.9 260.8C560.4 271.9 551.7 275.5 539.8 275.5C517.3 275.5 498.7 261.4 491.8 241.3C491.6 240.6 491.3 240 491.1 239.3V239.2C489.7 234.4 488.9 229.2 488.9 223.9C488.9 218.5 489.7 213.4 491.1 208.6V208.5C491.3 207.8 491.6 207.1 491.8 206.4C498.7 186.3 517.3 172.3 539.8 172.3C551.7 172.3 560.5 175.9 575.9 187L579.8 189.8L589.3 175.7L585.6 173C567.7 160 555.3 155.2 539.7 155.2C539.6 155.2 539.6 155.2 539.5 155.2C521.6 155.2 504.7 162.4 491.8 175.5C478.9 188.5 471.9 205.7 471.9 223.7C471.9 223.8 471.9 223.9 471.9 224C471.9 224.1 471.9 224.2 471.9 224.3C471.9 242.3 479 259.4 491.8 272.5C504.7 285.6 521.6 292.8 539.5 292.8C539.6 292.8 539.6 292.8 539.7 292.8C555.3 292.8 567.7 288 585.6 275L589.3 272.3L579.8 258.2L575.9 260.8Z" fill="#E83182"></path><path d="M403 154C372.4 154 346.5 180.5 346.5 211.8V288.7H363.7V239H441.2V288.7H458.6V213.3C458.6 180.6 433.7 154 403 154ZM363.7 222.5V211.9C363.7 189 380.9 171.1 402.9 171.1C425.1 171.1 441.1 188.9 441.1 213.4V222.5H363.7Z" fill="#E83182"></path><path d="M258.5 250H289.1C313.2 250 335.9 227.9 335.9 204.5C335.9 193.5 330 180.4 321.2 171.8C316.9 167.7 311.8 164.4 306 161.9C299.3 158.8 293.1 157.3 287.5 157.3H241.2V288.7H258.4V250H258.5ZM258.5 174.1H287.3C305.1 174.1 318.6 187.1 318.6 204.4C318.6 220.9 305.8 233.3 288.8 233.3H258.5V174.1Z" fill="#E83182"></path><path d="M223.6 248.9C223.6 229.7 212.8 215.5 191.5 206.8C167.5 196.6 165.5 193 165.5 184.8C165.5 178.9 167.9 171.8 179.6 171.8C189 171.8 193.1 175.4 194.6 185.2L195.3 190L212.1 186.9L211.3 182.3C208.2 164.8 196.7 154.7 179.8 154.7C161.4 154.7 148.5 167.6 148.5 186.1C148.5 194.9 151.8 203 157.7 208.9C162.6 213.7 167.6 216.6 179.7 222.2C190.4 226.9 195.1 229.6 199.1 233.3C203.9 238.2 206.3 243.8 206.3 250.5C206.3 264.8 195.1 275.5 180.2 275.5C165.6 275.5 154.6 266.1 154.6 253.7V239.4H137.7V253.7C137.7 274.8 157 292.6 179.8 292.6C203.9 292.7 223.6 273 223.6 248.9Z" fill="#E83182"></path><path d="M60.0999 175.1H124.7V158.4H42.8999V289.8H124.7V273.1H60.0999V218.4H125.1V201.7H60.0999V175.1Z" fill="#E83182"></path><path d="M725.3 154.1C725.3 134.7 709.5 118.8 690 118.8L455.5 118.4V59.4001C455.5 26.7001 421.1 0.100098 390.4 0.100098C359.8 0.100098 333.9 26.6001 333.9 57.9001V134.8H351.1V57.9001C351.1 35.0001 368.3 17.1001 390.3 17.1001C412.5 17.1001 438 34.9001 438 59.4001V135.2L689.9 135C700 135 707.9 144 707.9 154.1V288.8H725.1V154.1H725.3Z" fill="#0C419A"></path><path d="M250.5 139.1C268.6 139.1 285.7 131.8 298.7 118.7C311.7 105.6 318.8 88.3 318.8 70C318.8 51.9 311.6 34.8 298.6 21.8C285.5 8.7 268.3 1.5 250 1.5C212.9 1.5 181.5 33.2 181.5 70.7C181.6 107.7 213.2 139.1 250.5 139.1ZM250.2 18.5C279.2 18.5 302 41.2 302 70.1C302 99.3 279.4 122.2 250.6 122.2C221.5 122.2 198.7 99.5 198.7 70.6C198.6 41.4 221.3 18.5 250.2 18.5Z" fill="#0C419A"></path><path d="M35.7 429.1C25.6 429.1 17.7 420.6 17.7 410.5V44.6C17.7 28.6 28.6 17.4 44.1 17.4C61.5 17.4 74.6 30.2 74.6 47.2V135H92V47.1C92 36.4 93.8 31.4 99.7 25.7C105.5 20.2 113.2 17.2 121.3 17.2C137.4 17.2 149.6 30.1 149.6 47.1V135H166.8V45.6C166.8 21.3 145.6 0 121.5 0C109.7 0 97.3 5.2 88.5 13.8C86.2 16 84.6 17.9 83 20.4C81.7 18.6 80.4 17.1 78.6 15.2L78.4 15C74.1 10.9 69.3 7.39999 64.5 4.89999L64.3 4.8C58.3 2.1 51.6 0.699997 44.6 0.699997C19.5 0.699997 0.599976 20.8 0.599976 47.5V260.5V410.7C0.599976 430.1 16.4 446 35.9 446H166.8V429.3L35.7 429.1Z" fill="#0C419A"></path></svg>