<svg xmlns="http://www.w3.org/2000/svg" version="1.1" viewBox="-5.0 -10.0 110.0 135.0">


 <path d="m92.031 77.625-27.746-27.742-13.527 15.273 26.844 26.871c3.9844 3.9609 10.441 3.9609 14.426 0 3.9609-3.9844 3.9609-10.441 0.003906-14.402zm-10.211 8.8203c-0.25781 0.25781-0.58984 0.38672-0.92578 0.38672-0.30859 0-0.64453-0.12891-0.89844-0.38672l-22.578-22.574c-0.48828-0.48828-0.48828-1.3125 0-1.8008 0.51562-0.51562 1.3125-0.51562 1.8242 0l22.578 22.551c0.48828 0.51562 0.48828 1.3359 0 1.8242zm4.6289-4.6289c-0.25781 0.25781-0.58984 0.38672-0.89844 0.38672-0.33594 0-0.66797-0.12891-0.92578-0.38672l-22.551-22.574c-0.51562-0.48828-0.51562-1.3125 0-1.8242 0.48828-0.48828 1.3125-0.48828 1.8008 0l22.578 22.578c0.48438 0.51172 0.48438 1.3086-0.003906 1.8203zm-61.867-67.293c0.84766-0.84766 0.66797-2.2617-0.35938-2.9062l-10.055-6.1445c-1.2344-0.76953-2.8281-0.56641-3.8555 0.46094l-4.3984 4.3711c-1.0273 1.0273-1.207 2.6211-0.4375 3.8828l6.1445 10.055c0.64453 1.0039 2.0586 1.1836 2.9062 0.33594l1.082-1.0781 22.578 22.578 8.3828-7.4062-23.07-23.066zm69.742 6.668c-0.42969-1.7695-2.6289-2.3945-3.918-1.1055l-9.6055 9.6055c-0.95312 0.95312-2.4883 0.95312-3.4414 0l-7.1602-7.1602c-0.94531-0.94531-0.95312-2.4883 0-3.4414l9.6016-9.6016c1.2773-1.2773 0.68359-3.4844-1.0742-3.8984-6.9062-1.6602-14.492 0.20312-19.879 5.5898-6.4375 6.4375-7.8438 15.988-4.2461 23.789l-45.684 40.527c-4.7305 4.1875-4.9492 11.5-0.48047 15.969 4.3047 4.3047 11.266 4.25 15.516 0 0.15234-0.15234 0.30859-0.30859 0.45312-0.48047l40.527-45.688c7.1367 3.2812 15.793 2.3789 22.082-2.7227 6.6836-5.4023 9.1211-13.797 7.3086-21.383zm-80.574 64.961c-1.4062-1.4062-1.4062-3.6914 0-5.0977 1.4141-1.4141 3.6914-1.4062 5.0977 0s1.4141 3.6836 0 5.0977c-1.4062 1.4062-3.6914 1.4062-5.0977 0z"/>
<text x="0.0" y="117.5" font-size="5.0" font-weight="bold" font-family="Arbeit Regular, Helvetica, Arial-Unicode, Arial, Sans-serif" fill="#000000">Created by MihiMihi</text><text x="0.0" y="122.5" font-size="5.0" font-weight="bold" font-family="Arbeit Regular, Helvetica, Arial-Unicode, Arial, Sans-serif" fill="#000000">from Noun Project</text></svg>